<svg width="12" height="14" viewBox="0 0 12 14" fill="none" xmlns="http://www.w3.org/2000/svg">
<path d="M6 8.33333C5.81111 8.33333 5.65267 8.26933 5.52467 8.14133C5.39667 8.01333 5.33289 7.85511 5.33333 7.66667C5.33333 7.47778 5.39734 7.31933 5.52533 7.19133C5.65333 7.06333 5.81156 6.99956 6 7C6.18889 7 6.34733 7.064 6.47534 7.192C6.60333 7.32 6.66711 7.47822 6.66667 7.66667C6.66667 7.85556 6.60267 8.014 6.47467 8.142C6.34667 8.27 6.18845 8.33378 6 8.33333ZM3.33333 8.33333C3.14445 8.33333 2.986 8.26933 2.858 8.14133C2.73 8.01333 2.66622 7.85511 2.66667 7.66667C2.66667 7.47778 2.73067 7.31933 2.85867 7.19133C2.98667 7.06333 3.14489 6.99956 3.33333 7C3.52222 7 3.68067 7.064 3.80867 7.192C3.93667 7.32 4.00045 7.47822 4 7.66667C4 7.85556 3.936 8.014 3.808 8.142C3.68 8.27 3.52178 8.33378 3.33333 8.33333ZM8.66667 8.33333C8.47778 8.33333 8.31933 8.26933 8.19133 8.14133C8.06333 8.01333 7.99956 7.85511 8 7.66667C8 7.47778 8.064 7.31933 8.192 7.19133C8.32 7.06333 8.47822 6.99956 8.66667 7C8.85556 7 9.014 7.064 9.142 7.192C9.27 7.32 9.33378 7.47822 9.33333 7.66667C9.33333 7.85556 9.26933 8.014 9.14133 8.142C9.01334 8.27 8.85511 8.33378 8.66667 8.33333ZM6 11C5.81111 11 5.65267 10.936 5.52467 10.808C5.39667 10.68 5.33289 10.5218 5.33333 10.3333C5.33333 10.1444 5.39734 9.986 5.52533 9.858C5.65333 9.73 5.81156 9.66622 6 9.66667C6.18889 9.66667 6.34733 9.73067 6.47534 9.85867C6.60333 9.98667 6.66711 10.1449 6.66667 10.3333C6.66667 10.5222 6.60267 10.6807 6.47467 10.8087C6.34667 10.9367 6.18845 11.0004 6 11ZM3.33333 11C3.14445 11 2.986 10.936 2.858 10.808C2.73 10.68 2.66622 10.5218 2.66667 10.3333C2.66667 10.1444 2.73067 9.986 2.85867 9.858C2.98667 9.73 3.14489 9.66622 3.33333 9.66667C3.52222 9.66667 3.68067 9.73067 3.80867 9.85867C3.93667 9.98667 4.00045 10.1449 4 10.3333C4 10.5222 3.936 10.6807 3.808 10.8087C3.68 10.9367 3.52178 11.0004 3.33333 11ZM8.66667 11C8.47778 11 8.31933 10.936 8.19133 10.808C8.06333 10.68 7.99956 10.5218 8 10.3333C8 10.1444 8.064 9.986 8.192 9.858C8.32 9.73 8.47822 9.66622 8.66667 9.66667C8.85556 9.66667 9.014 9.73067 9.142 9.85867C9.27 9.98667 9.33378 10.1449 9.33333 10.3333C9.33333 10.5222 9.26933 10.6807 9.14133 10.8087C9.01334 10.9367 8.85511 11.0004 8.66667 11ZM1.33333 13.6667C0.966668 13.6667 0.652668 13.536 0.391334 13.2747C0.130001 13.0133 -0.000443313 12.6996 1.13186e-06 12.3333V3C1.13186e-06 2.63333 0.130668 2.31933 0.392001 2.058C0.653334 1.79667 0.967112 1.66622 1.33333 1.66667H2V0.333333H3.33333V1.66667H8.66667V0.333333H10V1.66667H10.6667C11.0333 1.66667 11.3473 1.79733 11.6087 2.05867C11.87 2.32 12.0004 2.63378 12 3V12.3333C12 12.7 11.8693 13.014 11.608 13.2753C11.3467 13.5367 11.0329 13.6671 10.6667 13.6667H1.33333ZM1.33333 12.3333H10.6667V5.66667H1.33333V12.3333Z" fill="black" fill-opacity="0.54"/>
</svg>
