<svg width="14" height="14" viewBox="0 0 14 14" fill="none" xmlns="http://www.w3.org/2000/svg">
<path d="M7.66644 7.4V5C7.66644 4.81111 7.60244 4.65267 7.47444 4.52467C7.34644 4.39667 7.18822 4.33289 6.99977 4.33333C6.81088 4.33333 6.65244 4.39733 6.52444 4.52533C6.39644 4.65333 6.33266 4.81156 6.33311 5V7.65C6.33311 7.73889 6.34977 7.82511 6.38311 7.90867C6.41644 7.99222 6.46644 8.06711 6.53311 8.13333L8.39977 10C8.522 10.1222 8.67755 10.1833 8.86644 10.1833C9.05533 10.1833 9.21088 10.1222 9.33311 10C9.45533 9.87778 9.51644 9.72222 9.51644 9.53333C9.51644 9.34445 9.45533 9.18889 9.33311 9.06667L7.66644 7.4ZM6.99977 13.6667C6.16644 13.6667 5.38577 13.5082 4.65777 13.1913C3.92977 12.8744 3.29644 12.4469 2.75777 11.9087C2.21911 11.3696 1.79155 10.7362 1.47511 10.0087C1.15866 9.28111 1.00022 8.50045 0.999772 7.66667C0.999772 6.83333 1.15822 6.05267 1.47511 5.32467C1.79199 4.59667 2.21955 3.96333 2.75777 3.42467C3.29688 2.886 3.93022 2.45844 4.65777 2.142C5.38533 1.82556 6.16599 1.66711 6.99977 1.66667C7.83311 1.66667 8.61377 1.82511 9.34177 2.142C10.0698 2.45889 10.7031 2.88667 11.2418 3.42533C11.7804 3.964 12.2082 4.59733 12.5251 5.32533C12.842 6.05333 13.0002 6.83378 12.9998 7.66667C12.9998 8.5 12.8413 9.28067 12.5244 10.0087C12.2076 10.7367 11.78 11.37 11.2418 11.9087C10.7027 12.4473 10.0693 12.8751 9.34177 13.192C8.61422 13.5089 7.83355 13.6671 6.99977 13.6667ZM0.366439 3.86667C0.244217 3.74445 0.183105 3.58889 0.183105 3.4C0.183105 3.21111 0.244217 3.05556 0.366439 2.93333L2.26644 1.03333C2.38866 0.911111 2.54422 0.85 2.73311 0.85C2.92199 0.85 3.07755 0.911111 3.19977 1.03333C3.32199 1.15556 3.38311 1.31111 3.38311 1.5C3.38311 1.68889 3.32199 1.84444 3.19977 1.96667L1.29977 3.86667C1.17755 3.98889 1.02199 4.05 0.833106 4.05C0.644217 4.05 0.488661 3.98889 0.366439 3.86667ZM13.6331 3.86667C13.5109 3.98889 13.3553 4.05 13.1664 4.05C12.9776 4.05 12.822 3.98889 12.6998 3.86667L10.7998 1.96667C10.6776 1.84444 10.6164 1.68889 10.6164 1.5C10.6164 1.31111 10.6776 1.15556 10.7998 1.03333C10.922 0.911111 11.0775 0.85 11.2664 0.85C11.4553 0.85 11.6109 0.911111 11.7331 1.03333L13.6331 2.93333C13.7553 3.05556 13.8164 3.21111 13.8164 3.4C13.8164 3.58889 13.7553 3.74445 13.6331 3.86667ZM6.99977 12.3333C8.29977 12.3333 9.40266 11.8804 10.3084 10.9747C11.2142 10.0689 11.6669 8.96622 11.6664 7.66667C11.6664 6.36667 11.2136 5.26378 10.3078 4.358C9.40199 3.45222 8.29933 2.99956 6.99977 3C5.69977 3 4.59688 3.45289 3.69111 4.35867C2.78533 5.26444 2.33266 6.36711 2.33311 7.66667C2.33311 8.96667 2.78599 10.0696 3.69177 10.9753C4.59755 11.8811 5.70022 12.3338 6.99977 12.3333Z" fill="black" fill-opacity="0.54"/>
</svg>
