<svg width="12" height="12" viewBox="0 0 12 12" fill="none" xmlns="http://www.w3.org/2000/svg">
<path d="M5.99984 6C5.26651 6 4.63873 5.73889 4.11651 5.21667C3.59428 4.69445 3.33317 4.06667 3.33317 3.33333C3.33317 2.6 3.59428 1.97222 4.11651 1.45C4.63873 0.927779 5.26651 0.666668 5.99984 0.666668C6.73317 0.666668 7.36095 0.927779 7.88317 1.45C8.40539 1.97222 8.66651 2.6 8.66651 3.33333C8.66651 4.06667 8.40539 4.69445 7.88317 5.21667C7.36095 5.73889 6.73317 6 5.99984 6ZM1.99984 11.3333C1.63317 11.3333 1.31917 11.2027 1.05784 10.9413C0.796505 10.68 0.666061 10.3662 0.666505 10V9.46667C0.666505 9.08889 0.763839 8.74156 0.958505 8.42467C1.15317 8.10778 1.41139 7.86622 1.73317 7.7C2.42206 7.35556 3.12206 7.09711 3.83317 6.92467C4.54428 6.75222 5.26651 6.66622 5.99984 6.66667C6.73317 6.66667 7.45539 6.75289 8.16651 6.92533C8.87762 7.09778 9.57762 7.356 10.2665 7.7C10.5887 7.86667 10.8472 8.10845 11.0418 8.42533C11.2365 8.74222 11.3336 9.08934 11.3332 9.46667V10C11.3332 10.3667 11.2025 10.6807 10.9412 10.942C10.6798 11.2033 10.3661 11.3338 9.99984 11.3333H1.99984Z" fill="black" fill-opacity="0.54"/>
</svg>
